PathFileType	4	(X/Y/Z)	C:/Users/opensim2020/Desktop/walking_exp_matlab/subject01_walking04_straight_03.trc																																																																																																																															
DataRate	CameraRate	NumFrames	NumMarkers	Units	OrigDataRate	OrigDataStartFrame	OrigNumFrames																																																																																																																											
100	100	8	43	mm	100	2207	211																																																																																																																											
Frame#	Time	LFHD			RFHD			LBHD			RBHD			C7			T10			CLAV			STRN			RBAK			LSHO			LUPA			LELB			LFRM			LWRA			LWRB			LFIN			RSHO			RUPA			RELB			RFRM			RWRA			RWRB			RFIN			LASI			RASI			LPSI			RPSI			LTHI			LKNE			LTIB			LANK			LHEE			LTOE			RTHI			RKNE			RTIB			RANK			RHEE			RTOE			*39			*40			*41			*42		
		X1	Y1	Z1	X2	Y2	Z2	X3	Y3	Z3	X4	Y4	Z4	X5	Y5	Z5	X6	Y6	Z6	X7	Y7	Z7	X8	Y8	Z8	X9	Y9	Z9	X10	Y10	Z10	X11	Y11	Z11	X12	Y12	Z12	X13	Y13	Z13	X14	Y14	Z14	X15	Y15	Z15	X16	Y16	Z16	X17	Y17	Z17	X18	Y18	Z18	X19	Y19	Z19	X20	Y20	Z20	X21	Y21	Z21	X22	Y22	Z22	X23	Y23	Z23	X24	Y24	Z24	X25	Y25	Z25	X26	Y26	Z26	X27	Y27	Z27	X28	Y28	Z28	X29	Y29	Z29	X30	Y30	Z30	X31	Y31	Z31	X32	Y32	Z32	X33	Y33	Z33	X34	Y34	Z34	X35	Y35	Z35	X36	Y36	Z36	X37	Y37	Z37	X38	Y38	Z38	X39	Y39	Z39	X40	Y40	Z40	X41	Y41	Z41	X42	Y42	Z42	X43	Y43	Z43
																																																																																																																																		
106	1.05	-68.08334	1670.4386	-1126.48889	-56.13446	1677.69434	-1012.67621	-184.54031	1624.45007	-1119.70227	-175.24681	1630.91309	-998.85565	-226.16925	1433.31873	-1077.33142	-260.95789	1140.63538	-1060.99561	-81.32101	1367.1261	-1068.35315	-36.99776	1214.02698	-1067.48364	-282.11853	1241.16089	-994.31995	-135.19254	1390.30029	-1232.43213	-137.92436	1204.5957	-1317.55676	-126.38834	1053.16614	-1321.68677	-56.88051	959.60175	-1339.26831	48.35569	872.24786	-1310.18896	0.45442	851.71277	-1339.67859	66.42003	799.66046	-1343.34924	-150.65631	1397.3728	-919.67792	-215.5537	1202.61414	-815.17291	-220.10001	1078.03955	-808.67694	-198.56876	960.78284	-772.94342	-123.15607	839.85968	-786.4079	-166.53462	844.68683	-747.86823	-133.50578	765.323	-746.60004	-80.73546	933.74396	-1156.02332	-91.41844	941.55762	-939.35474	-270.39737	944.52509	-1107.86621	-273.85892	947.43799	-962.41534	-103.78238	598.94495	-1195.6842	-110.57642	465.0947	-1172.20386	-168.31421	282.22534	-1174.04993	-202.29919	69.55684	-1111.0863	-247.45692	41.60398	-1057.45532	-55.07763	33.98266	-1117.11206	-61.5831	618.09918	-864.47705	-21.18422	465.84583	-880.19086	-146.89468	342.84729	-886.20282	-263.45535	174.30804	-938.80499	-314.81357	162.01497	-999.38812	-174.85677	64.28879	-917.84082	-68.25826	1711.14026	-1036.16833	1972.96643	1023.80145	-3101.95947	2012.55249	1022.06158	-3140.54297	NaN	NaN	NaN
107	1.06	-58.11399	1670.50146	-1126.02295	-46.31243	1677.38452	-1012.2793	-174.66777	1624.71582	-1119.42773	-165.56035	1630.93347	-998.65985	-216.84467	1433.55249	-1077.45886	-252.06711	1140.85657	-1061.47888	-71.99738	1367.09326	-1068.48352	-27.90353	1214.0072	-1067.91968	-273.05045	1241.42639	-994.711	-125.78742	1390.72571	-1232.69336	-127.46282	1205.24048	-1318.14929	-113.81891	1053.81726	-1322.47131	-41.98268	961.83569	-1339.87109	65.71012	877.52087	-1310.78748	18.21162	855.52618	-1339.83545	85.73418	805.55115	-1343.94373	-141.30118	1397.28503	-919.72186	-207.84674	1202.6239	-815.82581	-213.01833	1078.3363	-809.59424	-193.61514	960.80334	-773.6228	-120.26968	838.63293	-786.35535	-164.09126	844.18811	-748.03107	-132.28865	764.27991	-746.67908	-72.18999	933.96552	-1156.64575	-82.37861	942.07281	-940.18573	-261.90436	944.53497	-1107.70898	-265.06274	947.62262	-962.20514	-98.9283	598.46582	-1195.76758	-107.52037	464.68646	-1172.69885	-166.86737	282.41315	-1174.25244	-202.05217	69.83261	-1111.06799	-247.35716	42.13205	-1057.3999	-54.91705	33.896	-1117.12207	-48.66348	619.77612	-865.0708	-6.2349	467.71222	-881.37665	-126.598	339.02502	-885.8844	-236.48218	165.91887	-938.32257	-288.28735	150.80948	-998.32062	-142.14546	61.5036	-917.88104	-58.2531	1710.99097	-1035.65991	1973.0918	1023.26367	-3101.86499	2012.48804	1022.02911	-3140.64844	NaN	NaN	NaN
108	1.07	-48.19343	1670.42297	-1125.54187	-36.48926	1677.21887	-1011.61859	-164.82828	1624.91113	-1119.22363	-155.80281	1630.82422	-998.39282	-207.25883	1433.68787	-1077.48779	-243.0612	1141.1156	-1061.87585	-62.61131	1367.01514	-1068.51758	-18.76845	1213.88684	-1068.328	-263.91733	1241.50549	-995.15784	-116.35495	1391.02478	-1232.70349	-117.03596	1205.85193	-1318.625	-101.22896	1054.52258	-1323.42627	-27.20816	964.04797	-1340.42102	82.65166	882.77734	-1311.08508	35.76146	859.39044	-1339.87537	104.5556	811.35486	-1344.20239	-131.67082	1397.25427	-919.79877	-199.52104	1202.85095	-816.4165	-205.80191	1078.62708	-810.33002	-188.56561	961.01691	-774.12006	-117.11713	837.49316	-786.19104	-160.86209	843.97241	-748.3277	-130.80475	763.31335	-746.72394	-64.27512	933.35645	-1157.26538	-73.28427	942.45886	-940.9281	-253.44392	944.49414	-1107.51648	-256.25952	947.65283	-961.85516	-94.21996	598.078	-1196.0188	-104.35912	464.29861	-1173.09119	-165.25974	282.56467	-1174.49182	-201.83664	70.08189	-1111.06567	-247.24307	42.51786	-1057.276	-54.55604	33.74662	-1117.11536	-35.99556	621.28021	-865.51178	8.27936	469.21082	-882.79181	-106.20873	334.74686	-885.68848	-209.27211	157.37323	-937.78619	-260.82907	139.26837	-997.29102	-108.60805	58.95022	-917.76941	-48.36985	1710.85693	-1035.05005	1973.18994	1023.37231	-3101.90552	2012.56555	1021.95386	-3140.56885	NaN	NaN	NaN
109	1.08	-38.24322	1670.35632	-1125.00061	-26.7329	1676.89282	-1011.19867	-155.01117	1625.0144	-1118.9187	-146.13434	1630.78015	-998.06909	-197.91429	1433.89014	-1077.52869	-234.13629	1141.25183	-1062.24658	-53.1747	1366.87512	-1068.60571	-9.59741	1213.69067	-1068.6803	-254.70959	1241.57947	-995.48993	-106.88073	1391.31604	-1232.73523	-106.68464	1206.35425	-1319.03906	-88.88015	1055.1178	-1324.04883	-12.64996	966.22766	-1340.8385	99.40027	888.00525	-1311.30859	52.97108	863.2428	-1339.85168	122.95182	817.15588	-1344.39429	-122.25081	1396.98071	-919.85376	-191.52663	1202.90833	-816.93286	-198.63057	1078.90112	-810.979	-183.3175	961.24109	-774.60742	-113.83878	836.58282	-785.98248	-157.64459	843.77856	-748.40997	-129.13016	762.48102	-746.74402	-56.85526	932.99286	-1157.08032	-64.13103	942.63647	-941.47675	-244.94205	944.34705	-1107.24744	-246.64017	947.38531	-961.56042	-89.5531	597.72589	-1196.24719	-101.46235	463.95306	-1173.36182	-163.58397	282.70139	-1174.7207	-201.57967	70.40076	-1111.08008	-247.12602	43.06667	-1057.31213	-54.40431	33.57726	-1117.03296	-23.85404	622.65033	-866.13391	22.17989	470.66693	-884.19135	-86.04079	330.13043	-885.92395	-181.21844	148.48862	-937.29462	-232.71234	127.50082	-996.36078	-74.82182	56.53332	-917.73578	-38.4978	1710.60547	-1034.47009	1973.13196	1023.3623	-3101.92993	2012.5426	1021.94421	-3140.63037	NaN	NaN	NaN
110	1.09	-28.40981	1670.20105	-1124.50195	-16.99774	1676.59338	-1010.57434	-145.19189	1625.04114	-1118.56824	-136.47923	1630.57605	-997.68335	-188.31534	1433.74976	-1077.48914	-225.02846	1141.3136	-1062.5	-43.74103	1366.67969	-1068.59448	-0.38835	1213.45422	-1069.03577	-245.4334	1241.50867	-995.79346	-97.42919	1391.52271	-1232.74829	-96.35041	1206.81567	-1319.35461	-76.52219	1055.65161	-1324.73975	1.79401	968.43048	-1341.31616	115.75816	893.24152	-1311.45178	70.01749	867.17273	-1339.92029	141.12688	822.99384	-1344.30298	-113.07329	1396.82629	-919.76178	-183.55597	1202.80872	-817.39502	-191.35838	1079.12402	-811.59277	-178.0311	961.42834	-775.00586	-110.1943	835.70776	-785.78003	-154.57607	843.60284	-748.5387	-127.04559	761.74231	-746.70209	-48.5303	932.49097	-1157.27173	-54.71378	942.78955	-941.88782	-236.33357	944.21637	-1106.84973	-237.05537	947.01538	-961.05347	-85.00828	597.30487	-1196.4635	-98.47582	463.51926	-1173.65686	-161.76041	282.86182	-1174.91333	-201.33705	70.76342	-1111.15662	-247.30656	43.99418	-1057.39612	-54.23943	33.47856	-1116.98132	-11.81408	623.63849	-866.2749	35.15328	471.36563	-886.08093	-65.90239	325.69949	-886.16608	-152.42401	139.55212	-936.60022	-202.9827	115.2451	-995.30743	-40.5873	54.39724	-917.71222	-28.72893	1710.34534	-1033.84302	1973.23743	1023.31451	-3101.81616	2012.50903	1021.99738	-3140.64746	NaN	NaN	NaN
111	1.1	-18.56843	1670.05664	-1123.88611	-7.25007	1676.24646	-1009.96527	-135.39166	1624.98621	-1118.23206	-126.84872	1630.31702	-997.33789	-178.86217	1433.70532	-1077.37366	-215.95941	1141.32629	-1062.68408	-34.26713	1366.43396	-1068.51709	8.96681	1213.12317	-1069.2981	-236.11578	1241.37219	-996.03967	-87.8934	1391.63574	-1232.70581	-85.95589	1207.17676	-1319.51794	-64.242	1056.19543	-1325.23743	16.04328	970.60303	-1341.59827	131.87483	898.43073	-1311.56543	86.78002	871.10229	-1339.9231	158.93849	828.68561	-1344.25867	-103.60353	1396.53284	-919.71484	-175.19995	1202.86328	-817.75519	-184.18102	1079.30823	-812.02301	-172.4261	961.57367	-775.30481	-106.42407	834.89862	-785.48456	-150.56609	843.49945	-748.59265	-124.64006	761.04987	-746.75397	-40.02137	931.72229	-1157.78491	-45.42032	942.68201	-942.17853	-227.71625	944.09442	-1106.38892	-227.96852	947.08148	-960.48651	-80.3917	596.91443	-1196.56763	-95.30198	463.2804	-1174.01233	-159.83662	283.03159	-1175.04199	-201.13774	71.10146	-1111.24573	-247.02412	44.62668	-1057.46497	-54.2802	33.5335	-1117.00562	-0.76834	624.46667	-866.77014	47.47332	472.02527	-887.45886	-46.26298	321.11554	-886.51404	-123.00191	130.52983	-936.02893	-172.77827	103.60413	-994.31769	-6.13954	52.56825	-917.87738	-18.9479	1710.0553	-1033.20361	1973.04407	1023.83502	-3102.09277	2012.54773	1021.9635	-3140.61304	NaN	NaN	NaN
112	1.11	-8.75069	1669.90686	-1123.10876	2.50319	1675.94446	-1009.20416	-125.61001	1624.89258	-1117.74744	-117.20989	1630.07678	-996.79547	-169.27718	1433.68604	-1077.29565	-206.79666	1141.30347	-1062.69153	-24.74652	1366.15564	-1068.46179	18.20567	1212.69714	-1069.47791	-226.7802	1241.18958	-996.13019	-78.36308	1391.6532	-1232.60632	-75.55168	1207.45544	-1319.57996	-52.12403	1056.63489	-1325.66394	30.09108	972.74573	-1341.91162	147.63766	903.46008	-1311.51416	103.20145	875.01074	-1339.93518	176.4776	834.28381	-1344.07056	-94.00436	1396.09131	-919.56525	-167.15923	1202.59875	-818.10065	-176.90826	1079.47668	-812.33154	-166.739	961.70959	-775.58344	-102.34718	834.13507	-785.2959	-146.82892	843.21814	-748.60248	-121.94285	760.39197	-746.81348	-31.66357	931.05566	-1157.8894	-36.06661	942.40918	-942.3728	-219.00716	943.95734	-1105.85596	-219.07661	947.29755	-959.95038	-75.63596	596.53204	-1196.57544	-92.32219	462.94238	-1174.15588	-158.064	283.31241	-1175.19153	-200.93724	71.53579	-1111.29517	-246.91792	45.35606	-1057.44714	-54.19971	33.48375	-1117.05298	10.4554	625.07776	-867.50098	59.12437	472.24786	-888.83716	-26.43217	316.64691	-886.53033	-93.44504	122.41188	-935.15906	-141.55153	92.27807	-993.20819	28.38532	51.28404	-918.06085	-9.17107	1709.73315	-1032.4873	1973.24243	1023.25555	-3101.89966	2012.52563	1021.96332	-3140.75635	NaN	NaN	NaN
113	1.12	1.0537	1669.60437	-1122.53821	12.04162	1675.37585	-1008.53229	-115.92689	1624.7467	-1117.34692	-107.55621	1629.67615	-996.34314	-159.59781	1433.36755	-1077.09839	-197.543	1141.20276	-1062.54358	-15.17426	1365.83606	-1068.3457	27.70621	1212.29504	-1069.59924	-217.35612	1240.95801	-996.18994	-68.74696	1391.60327	-1232.39771	-65.12687	1207.64465	-1319.58142	-40.11036	1056.96228	-1326.08496	44.00489	974.81293	-1342.07361	163.0948	908.44989	-1311.62524	119.35142	878.80286	-1339.81396	193.54427	839.68127	-1343.65686	-84.20679	1395.75122	-919.41907	-158.71913	1202.6676	-818.26257	-169.56367	1079.59131	-812.64563	-160.82367	961.80835	-775.72107	-97.97244	833.42096	-785.1203	-142.60867	843.04474	-748.63745	-118.76447	759.94537	-746.78198	-23.20846	930.3031	-1158.02563	-26.57825	942.10474	-942.3913	-210.24782	943.84546	-1105.22729	-209.43521	946.99762	-959.25549	-70.8022	596.21088	-1196.57861	-89.19228	462.80905	-1174.27637	-156.37573	283.68219	-1175.26892	-200.64345	72.13184	-1111.34558	-246.75902	46.11517	-1057.49646	-54.08055	33.41949	-1117.21582	20.67956	625.10101	-868.03632	70.35644	472.67023	-889.86353	-6.97117	312.53308	-886.37347	-62.86059	114.3033	-934.4707	-109.75169	82.11805	-991.83002	62.91814	50.46988	-918.43073	0.52686	1709.29626	-1031.7074	1973.0647	1023.2832	-3101.87012	2012.52124	1021.96143	-3140.68726	NaN	NaN	NaN
